Coordinates
version=1
nRows=6
nColumns=36
inDegrees=yes

Units are S.I. units (second, meters, Newtons, ...)
If the header above contains a line with 'inDegrees', this indicates whether rotational values are in degrees (yes) or radians (no).

endheader
time	pelvis_tilt	pelvis_list	pelvis_rotation	pelvis_tx	pelvis_ty	pelvis_tz	hip_flexion_r	hip_adduction_r	hip_rotation_r	knee_angle_r	knee_angle_r_beta	ankle_angle_r	subtalar_angle_r	mtp_angle_r	hip_flexion_l	hip_adduction_l	hip_rotation_l	knee_angle_l	knee_angle_l_beta	ankle_angle_l	subtalar_angle_l	mtp_angle_l	lumbar_extension	lumbar_bending	lumbar_rotation	arm_flex_r	arm_add_r	arm_rot_r	elbow_flex_r	pro_sup_r	arm_flex_l	arm_add_l	arm_rot_l	elbow_flex_l	pro_sup_l
      3.68333330	     -6.80864448	     -0.41706439	      3.41588908	      0.28584774	      0.93522498	     -0.01741031	      3.48102142	     -4.26755090	     -6.80660353	      1.98539588	      0.03465170	      3.42807468	     -4.43933793	     -7.49999987	      3.53495004	     -6.15000323	     -0.92270948	      2.30625660	      0.04025177	      3.66667650	      5.16488778	     -7.49999987	      7.83412493	      2.73149438	      5.36337536	   -179.39217310	     -3.05668525	   -281.20090469	     10.10597277	     67.79910417	     48.12304030	    -50.24199627	    -37.83908866	     25.55428554	     89.77238290
      3.70000000	     -6.80127502	     -0.43072125	      3.39219916	      0.28580578	      0.93819253	     -0.01739614	      3.48608860	     -4.21692334	     -6.84764128	      1.93154835	      0.03371188	      3.37404265	     -4.44798747	     -7.49999987	      3.51255989	     -6.17302015	     -0.96120368	      2.28917317	      0.03995361	      3.62559270	      5.15595126	     -7.49999987	      7.84653963	      2.79372904	      5.60835446	   -179.05620316	     -3.10417654	   -277.54260072	      9.71154096	     63.89160108	     48.33992312	    -50.08385285	    -36.70443389	     24.97842982	     89.43835251
      3.71666670	     -6.80556436	     -0.43909697	      3.38023816	      0.28583610	      0.93536501	     -0.01744002	      3.51800254	     -4.18414577	     -6.93251357	      1.90664592	      0.03327725	      3.34966039	     -4.44300428	     -7.49999987	      3.53034151	     -6.17939178	     -0.97995036	      2.30751283	      0.04027370	      3.65472679	      5.11929770	     -7.49999987	      7.89901696	      2.81117355	      5.77303930	   -179.09082659	     -3.32329965	   -279.77223386	      9.82556934	     68.18091550	     48.25577826	    -49.20864996	    -40.44397745	     26.48253486	     94.44981484
      3.73333330	     -6.80193198	     -0.44506231	      3.40131861	      0.28580259	      0.93548215	     -0.01728095	      3.51831984	     -4.16627125	     -6.97564521	      1.90648192	      0.03327439	      3.31698565	     -4.42727005	     -7.49999987	      3.53616014	     -6.18342547	     -0.88806576	      2.30443830	      0.04022004	      3.60233631	      4.98786963	     -7.49999987	      7.82955779	      2.86410639	      5.32187655	   -179.04669166	     -3.26106845	   -278.65004598	      9.53470398	     66.26563751	     48.14224198	    -49.90241397	    -39.18770176	     25.48245030	     92.76566396
      3.75000000	     -6.78169404	     -0.44446627	      3.34188650	      0.28585888	      0.93564498	     -0.01743741	      3.51425887	     -4.16023954	     -7.04592123	      1.90219350	      0.03319954	      3.36592606	     -4.49403423	     -7.49999987	      3.50267431	     -6.19118532	     -0.95542323	      2.29761407	      0.04010093	      3.62702903	      5.05033661	     -7.49999987	      7.76603427	      2.89976974	      5.19579289	   -179.02333447	     -3.20645185	   -278.33083800	      9.40370358	     65.13163036	     48.35145848	    -50.25628053	    -38.22495144	     24.54601632	     91.72071638
      3.76666670	     -6.78986776	     -0.48322434	      3.28424858	      0.28579450	      0.93567183	     -0.01726761	      3.54059394	     -4.10004601	     -7.08906586	      1.89523662	      0.03307812	      3.35801947	     -4.61048975	     -7.49999987	      3.49723577	     -6.24528656	     -1.05736054	      2.30177930	      0.04017363	      3.63346961	      5.02161669	     -7.49999987	      7.73065588	      2.93997678	      4.90765803	   -179.29188820	     -3.26300080	   -278.61162831	      9.18078857	     65.27490828	     47.88014339	    -50.59555088	    -38.00776544	     24.66366032	     90.07070754
